<svg xmlns="http://www.w3.org/2000/svg" xmlns:xlink="http://www.w3.org/1999/xlink" viewBox="0 0 286.59 325.28"><defs><style>.cls-1{fill:url(#linear-gradient);}.cls-2{fill:url(#linear-gradient-2);}.cls-3{fill:url(#linear-gradient-3);}.cls-4{fill:url(#linear-gradient-4);}.cls-5{fill:url(#linear-gradient-5);}.cls-6{fill:url(#linear-gradient-6);}.cls-7{fill:url(#linear-gradient-7);}</style><linearGradient id="linear-gradient" x1="79.06" y1="29.32" x2="242.5" y2="312.41" gradientTransform="translate(-17.49 -8.22)" gradientUnits="userSpaceOnUse"><stop offset="0" stop-color="#3c436d"/><stop offset="1" stop-color="#333858"/></linearGradient><linearGradient id="linear-gradient-2" x1="128.09" y1="280.26" x2="179.09" y2="280.26" gradientTransform="translate(-47.24 -8.72)" gradientUnits="userSpaceOnUse"><stop offset="0" stop-color="#2d5886"/><stop offset="1" stop-color="#31446c"/></linearGradient><linearGradient id="linear-gradient-3" x1="173.7" y1="248.53" x2="224.7" y2="248.53" gradientTransform="translate(51.26 -44.18)" xlink:href="#linear-gradient-2"/><linearGradient id="linear-gradient-4" x1="133.79" y1="280.26" x2="95.79" y2="280.26" gradientTransform="translate(26.73 -25.12)" gradientUnits="userSpaceOnUse"><stop offset="0" stop-color="#246fa4"/><stop offset="1" stop-color="#1a84b8"/></linearGradient><linearGradient id="linear-gradient-5" x1="263.13" y1="261.52" x2="225.13" y2="261.52" gradientTransform="translate(-28.84 -40.77)" xlink:href="#linear-gradient-4"/><linearGradient id="linear-gradient-6" x1="146.7" y1="248.53" x2="92.7" y2="248.53" gradientTransform="translate(58.71 -10.58)" gradientUnits="userSpaceOnUse"><stop offset="0" stop-color="#179ee2"/><stop offset="0.5" stop-color="#1ba1ee"/><stop offset="1" stop-color="#179ee2"/></linearGradient><linearGradient id="linear-gradient-7" x1="118.57" y1="70.15" x2="202.99" y2="216.37" gradientTransform="translate(-29.16 -5.64)" gradientUnits="userSpaceOnUse"><stop offset="0" stop-color="#36446c"/><stop offset="1" stop-color="#2d7eb1"/></linearGradient></defs><g id="Layer_2" data-name="Layer 2"><g id="Layer_1-2" data-name="Layer 1"><rect class="cls-1" x="38.29" y="17.64" width="210" height="290" rx="40" transform="translate(-55.31 75.8) rotate(-25)"/><rect class="cls-2" x="80.86" y="266.04" width="51" height="11" transform="translate(317.51 472.7) rotate(155)"/><rect class="cls-3" x="224.96" y="198.85" width="51" height="11" transform="translate(-62.89 124.99) rotate(-25)"/><path class="cls-4" d="M122.52,249.64H155a5.5,5.5,0,0,1,5.5,5.5v0a5.5,5.5,0,0,1-5.5,5.5h-32.5a0,0,0,0,1,0,0v-11a0,0,0,0,1,0,0Z" transform="translate(377.61 426.57) rotate(155)"/><path class="cls-5" d="M196.29,215.24h32.5a5.5,5.5,0,0,1,5.5,5.5v0a5.5,5.5,0,0,1-5.5,5.5h-32.5a0,0,0,0,1,0,0v-11a0,0,0,0,1,0,0Z" transform="translate(-73.12 111.67) rotate(-25)"/><rect class="cls-6" x="151.41" y="232.44" width="54" height="11" rx="5.5" transform="translate(-83.84 97.69) rotate(-25)"/><rect class="cls-7" x="71.13" y="66.62" width="121" height="142" rx="20" transform="translate(-45.83 68.52) rotate(-25)"/></g></g></svg>
